<svg width="100%" height="100%" viewBox="0 0 100 100" style="fill-rule:evenodd;clip-rule:evenodd;stroke-linejoin:round;stroke-miterlimit:2;"><path d="M26.457,66.681c-8.511,-6.878 -13.957,-17.398 -13.957,-29.181c0,-20.697 16.803,-37.5 37.5,-37.5c20.697,0 37.5,16.803 37.5,37.5c0,11.774 -5.438,22.289 -13.939,29.167l9.772,0c2.3,0 4.167,1.867 4.167,4.166c0,2.3 -1.867,4.167 -4.167,4.167l-54.982,0c-4.149,0 -7.518,3.369 -7.518,7.518l0,1.631c0,4.149 3.369,7.518 7.518,7.518l54.982,0c2.3,0 4.167,1.867 4.167,4.166c0,2.3 -1.867,4.167 -4.167,4.167l-56.254,0c-0.014,0 -0.028,0 -0.041,0c-8.031,-0.042 -14.538,-6.575 -14.538,-14.616l0,-4.101c0,-7.847 6.196,-14.257 13.957,-14.602Zm58.282,16.652c0,-2.299 -1.867,-4.166 -4.167,-4.166l-50,0c-2.3,0 -4.167,1.867 -4.167,4.166c0,2.3 1.867,4.167 4.167,4.167l50,0c2.3,0 4.167,-1.867 4.167,-4.167Zm-34.739,-70.833c13.798,0 25,11.202 25,25c0,13.798 -11.202,25 -25,25c-13.798,0 -25,-11.202 -25,-25c0,-13.798 11.202,-25 25,-25Z"/></svg>
